Coordinates
nRows=7
nColumns=24

# SIMM Motion File Header:
name Coordinates
datacolumns 24
datarows 7
otherdata 1
range 1.00000000000000000000 1.00600000000000000000

Units are S.I. units (second, meters, Newtons, ...)
Angles are in degrees.

endheader
time	pelvis_tx	pelvis_ty	pelvis_tz	pelvis_tilt	pelvis_list	pelvis_rotation	hip_flexion_r	hip_adduction_r	hip_rotation_r	knee_angle_r	ankle_angle_r	subtalar_angle_r	mtp_angle_r	hip_flexion_l	hip_adduction_l	hip_rotation_l	knee_angle_l	ankle_angle_l	subtalar_angle_l	mtp_angle_l	lumbar_extension	lumbar_bending	lumbar_rotation
      1.00000000000000000000	      0.59102371119136587000	      1.04532804649961890000	      0.04908043193077629700	      5.23678381552749970000	      0.02253763020730777100	      0.46478986571965397000	     -3.20373127819600790000	      1.93795209683892080000	     -3.89591838162515190000	    -11.34762588900015600000	      7.97142909034873170000	      0.05215235496303888300	     -0.00272499875535781290	     18.41775825126163100000	     -3.20277886191201680000	     -4.18441890623883510000	    -57.84131113658359900000	      2.11331619023304240000	     -0.00354537136272390280	     -0.04729079695057496200	    -16.26906757134650100000	      1.78948329126614250000	      0.60094952443677174000
      1.00099999999999990000	      0.59089060714005615000	      1.04535651061725440000	      0.04915973929052436900	      5.23778353832326800000	      0.02466404748526431600	      0.44761917009222962000	     -3.29071513915765480000	      1.94093728016546720000	     -3.88673338429462590000	    -11.29864018785148300000	      7.98668075531025150000	      0.05240315539662630800	     -0.00313905296811320880	     18.47193595578587400000	     -3.19776340737175070000	     -4.21790377445650130000	    -57.60790398652353900000	      2.10825266788442710000	     -0.00353723300073603830	     -0.04700308267850066000	    -16.27863055310776700000	      1.77809191956393440000	      0.62255476310768909000
      1.00200000000000000000	      0.59075733568274469000	      1.04538348213809120000	      0.04923852476577123700	      5.23870976291263890000	      0.02636036980213258400	      0.43064520520255789000	     -3.37749526312482740000	      1.94428158022345190000	     -3.87778946377800220000	    -11.24985829418817600000	      8.00180559011186430000	      0.05264233154590836100	     -0.00355355360857330730	     18.52522368626872100000	     -3.19359543555688670000	     -4.25239450719941650000	    -57.37214658603829800000	      2.10233845809649680000	     -0.00352896949999903290	     -0.04671661620134161300	    -16.28811696866313600000	      1.76717659235922840000	      0.64396492256182913000
      1.00300000000000010000	      0.59062390841296997000	      1.04540895797325990000	      0.04931678889206558100	      5.23956038093864420000	      0.02762415766891949300	      0.41386598167532335000	     -3.46407563484428630000	      1.94798786178848890000	     -3.86907324634152780000	    -11.20127134770233300000	      8.01680954922805710000	      0.05286912722258797800	     -0.00396814892682667910	     18.57762025021533200000	     -3.19027021264676550000	     -4.28788514103225800000	    -57.13404542951041500000	      2.09558255294142540000	     -0.00352057198798595360	     -0.04643141378053671600	    -16.29752322289687400000	      1.75674012999338420000	      0.66518341821107951000
      1.00400000000000000000	      0.59049033702800791000	      1.04543293474524850000	      0.04939453203421443500	      5.24033327550346680000	      0.02845309274126102100	      0.39727933993346076000	     -3.55046026008294560000	      1.95205888972011650000	     -3.86057101879992580000	    -11.15287056125714700000	      8.03169991247929540000	      0.05308207650100167000	     -0.00438434196581671730	     18.62912468304512000000	     -3.18778245268677370000	     -4.32436885102076210000	    -56.89360731276119800000	      2.08799385857816810000	     -0.00351202685734291210	     -0.04614749228008634800	    -16.30684571658269300000	      1.74678521341341790000	      0.68621376170542692000
      1.00499999999999990000	      0.59035663335830291000	      1.04545540853551630000	      0.04947175427975347000	      5.24102632984942400000	      0.02884499051867743500	      0.38088296101865349000	     -3.63665317810971180000	      1.95649729024760280000	     -3.85226887245495670000	    -11.10464713308581600000	      8.04648318130128710000	      0.05328084388957139000	     -0.00480168800908174420	     18.67973624519903500000	     -3.18612632228207990000	     -4.36183794589784850000	    -56.65083933511878900000	      2.07958119619992490000	     -0.00350332821758796630	     -0.04586486641602296300	    -16.31608085434653800000	      1.73731438519889790000	      0.70705954469678123000
      1.00600000000000000000	      0.59022280936112914000	      1.04547637487167310000	      0.04954845544740930200	      5.24163743018622070000	      0.02879779600913025600	      0.36467437047793877000	     -3.72265845286320470000	      1.96130556255946780000	     -3.84415272640573800000	    -11.05659227248260000000	      8.06116515035467350000	      0.05346579080494787800	     -0.00521798405349583030	     18.72945442496868300000	     -3.18529546078943860000	     -4.40028387565385780000	    -56.40574890862759400000	      2.07035331059719940000	     -0.00349447528249864590	     -0.04558354932091923000	    -16.32522504909187000000	      1.72833005300139540000	      0.72772443545911003000
